# xmcd
# Track frame offsets:
# 150
# 19119
# 38811
# 61788
# 76054
# 93252
# 107843
# 128422
# 143004
# 159581
#
# Disc length: 2359 seconds
# Revision: 0
# Processed by: cddbd v1.5.1PL0 Copyright (c) Steve Scherf et al.
# Submitted via: VisiTrax 2.9.10.220 - For more info visit www.synapsa.com
#
DISCID=6d09350a
DTITLE=Lena Horne - Lena Horne Greatest Hits
DYEAR=1997
DGENRE=Classic R and B
TTITLE0=I Wish I'd Met You
TTITLE1=Everytime We Say Goodbye
TTITLE2=Round About
TTITLE3=Joy
TTITLE4=Sing My Heart
TTITLE5=The Eagle And Me
TTITLE6=When I fall In Love
TTITLE7=Look To The Rainbow
TTITLE8=It Could Happen to You
TTITLE9=Sing My Heart
EXTD=Voice Box KRB Music Company KRB5022-2
EXTT0=
EXTT1=
EXTT2=
EXTT3=
EXTT4=
EXTT5=
EXTT6=
EXTT7=
EXTT8=
EXTT9=
PLAYORDER=
